<mxfile modified="2022-05-20T02:22:03.428Z" host="app.diagrams.net" agent="5.0 (Windows NT 10.0; Win64; x64) AppleWebKit/537.36 (KHTML, like Gecko) Chrome/101.0.4951.54 Safari/537.36" etag="16yJLwHP_XSMvrpV9QQ4" compressed="false" version="18.0.8" type="google">
  <diagram name="Integration/System Logical Module/API/Resource URLs/Notifications" id="iR8TlXpBU9GavElUQQOI">
    <mxGraphModel grid="1" page="1" gridSize="10" guides="1" tooltips="1" connect="1" arrows="1" fold="1" pageScale="1" pageWidth="850" pageHeight="1100" math="0" shadow="0">
      <root>
        <mxCell id="zIM_8ldq9GcHTC7kG14I-0" />
        <mxCell id="28eaLeGXLbTpGrWGdDaG-1" value="Diagram" parent="zIM_8ldq9GcHTC7kG14I-0" />
        <mxCell id="zIM_8ldq9GcHTC7kG14I-38" value="List Notifications (within current Tenancy)" style="text;html=1;strokeColor=none;fillColor=none;align=left;verticalAlign=middle;whiteSpace=wrap;rounded=0;dashed=1;fontFamily=Helvetica;fontSize=12;" vertex="1" parent="28eaLeGXLbTpGrWGdDaG-1">
          <mxGeometry x="400" y="300" width="320" height="20" as="geometry" />
        </mxCell>
        <mxCell id="zIM_8ldq9GcHTC7kG14I-39" value="Notifications" style="text;html=1;strokeColor=none;fillColor=none;align=left;verticalAlign=middle;whiteSpace=wrap;rounded=0;dashed=1;fontSize=12;fontFamily=Courier New;" vertex="1" parent="28eaLeGXLbTpGrWGdDaG-1">
          <mxGeometry x="160" y="300" width="200" height="20" as="geometry" />
        </mxCell>
        <mxCell id="zIM_8ldq9GcHTC7kG14I-40" value="Notifications/{uuid}" style="text;html=1;strokeColor=none;fillColor=none;align=left;verticalAlign=middle;whiteSpace=wrap;rounded=0;dashed=1;fontSize=12;fontFamily=Courier New;" vertex="1" parent="28eaLeGXLbTpGrWGdDaG-1">
          <mxGeometry x="160" y="400" width="200" height="20" as="geometry" />
        </mxCell>
        <mxCell id="zIM_8ldq9GcHTC7kG14I-41" value="View Notification {uuid}. Using common non-standard notation." style="text;html=1;strokeColor=none;fillColor=none;align=left;verticalAlign=middle;whiteSpace=wrap;rounded=0;dashed=1;fontFamily=Helvetica;fontSize=11;" vertex="1" parent="28eaLeGXLbTpGrWGdDaG-1">
          <mxGeometry x="400" y="400" width="320" height="20" as="geometry" />
        </mxCell>
        <mxCell id="zIM_8ldq9GcHTC7kG14I-42" value="GET" style="text;html=1;strokeColor=none;fillColor=none;align=left;verticalAlign=middle;whiteSpace=wrap;rounded=0;dashed=1;fontSize=12;fontFamily=Courier New;" vertex="1" parent="28eaLeGXLbTpGrWGdDaG-1">
          <mxGeometry x="120" y="300" width="40" height="20" as="geometry" />
        </mxCell>
        <mxCell id="zIM_8ldq9GcHTC7kG14I-43" value="GET" style="text;html=1;strokeColor=none;fillColor=none;align=left;verticalAlign=middle;whiteSpace=wrap;rounded=0;dashed=1;fontSize=12;fontFamily=Courier New;" vertex="1" parent="28eaLeGXLbTpGrWGdDaG-1">
          <mxGeometry x="120" y="400" width="40" height="20" as="geometry" />
        </mxCell>
        <mxCell id="zIM_8ldq9GcHTC7kG14I-44" value="POST" style="text;html=1;strokeColor=none;fillColor=none;align=left;verticalAlign=middle;whiteSpace=wrap;rounded=0;dashed=1;fontSize=12;fontFamily=Courier New;" vertex="1" parent="28eaLeGXLbTpGrWGdDaG-1">
          <mxGeometry x="120" y="440" width="40" height="20" as="geometry" />
        </mxCell>
        <mxCell id="zIM_8ldq9GcHTC7kG14I-45" value="Notifications" style="text;html=1;strokeColor=none;fillColor=none;align=left;verticalAlign=middle;whiteSpace=wrap;rounded=0;dashed=1;fontSize=12;fontFamily=Courier New;" vertex="1" parent="28eaLeGXLbTpGrWGdDaG-1">
          <mxGeometry x="160" y="440" width="200" height="20" as="geometry" />
        </mxCell>
        <mxCell id="zIM_8ldq9GcHTC7kG14I-46" value="POST" style="text;html=1;strokeColor=none;fillColor=none;align=left;verticalAlign=middle;whiteSpace=wrap;rounded=0;dashed=1;fontSize=12;fontFamily=Courier New;" vertex="1" parent="28eaLeGXLbTpGrWGdDaG-1">
          <mxGeometry x="120" y="460" width="40" height="20" as="geometry" />
        </mxCell>
        <mxCell id="zIM_8ldq9GcHTC7kG14I-47" value="Notifications(&#39;{uuid}&#39;)" style="text;html=1;strokeColor=none;fillColor=none;align=left;verticalAlign=middle;whiteSpace=wrap;rounded=0;dashed=1;fontSize=12;fontFamily=Courier New;" vertex="1" parent="28eaLeGXLbTpGrWGdDaG-1">
          <mxGeometry x="160" y="460" width="200" height="20" as="geometry" />
        </mxCell>
        <mxCell id="zIM_8ldq9GcHTC7kG14I-48" value="Create&amp;nbsp;&lt;span style=&quot;font-size: 10px;&quot;&gt;Notification&lt;/span&gt;, server side generated Id. &lt;b style=&quot;font-size: 10px;&quot;&gt;&lt;font color=&quot;#cc0000&quot; style=&quot;font-size: 10px;&quot;&gt;&lt;u style=&quot;font-size: 10px;&quot;&gt;NOT&lt;/u&gt;&lt;/font&gt; &lt;/b&gt;recommended." style="text;html=1;strokeColor=none;fillColor=none;align=left;verticalAlign=middle;whiteSpace=wrap;rounded=0;dashed=1;fontFamily=Helvetica;fontSize=10;" vertex="1" parent="28eaLeGXLbTpGrWGdDaG-1">
          <mxGeometry x="400" y="440" width="320" height="20" as="geometry" />
        </mxCell>
        <mxCell id="zIM_8ldq9GcHTC7kG14I-49" value="Create&amp;nbsp;&lt;span style=&quot;font-size: 10px;&quot;&gt;Notification&lt;/span&gt;, client side generated UUID. &lt;font color=&quot;#009900&quot; style=&quot;font-size: 10px;&quot;&gt;&lt;b style=&quot;font-size: 10px;&quot;&gt;RECOMMENDED&lt;/b&gt;&lt;/font&gt;." style="text;html=1;strokeColor=none;fillColor=none;align=left;verticalAlign=middle;whiteSpace=wrap;rounded=0;dashed=1;fontFamily=Helvetica;fontSize=10;" vertex="1" parent="28eaLeGXLbTpGrWGdDaG-1">
          <mxGeometry x="400" y="460" width="320" height="20" as="geometry" />
        </mxCell>
        <mxCell id="zIM_8ldq9GcHTC7kG14I-50" value="PUT" style="text;html=1;strokeColor=none;fillColor=none;align=left;verticalAlign=middle;whiteSpace=wrap;rounded=0;dashed=1;fontSize=12;fontFamily=Courier New;" vertex="1" parent="28eaLeGXLbTpGrWGdDaG-1">
          <mxGeometry x="120" y="420" width="40" height="20" as="geometry" />
        </mxCell>
        <mxCell id="zIM_8ldq9GcHTC7kG14I-51" value="Notifications(&#39;{uuid}&#39;)" style="text;html=1;strokeColor=none;fillColor=none;align=left;verticalAlign=middle;whiteSpace=wrap;rounded=0;dashed=1;fontSize=12;fontFamily=Courier New;" vertex="1" parent="28eaLeGXLbTpGrWGdDaG-1">
          <mxGeometry x="160" y="420" width="200" height="20" as="geometry" />
        </mxCell>
        <mxCell id="zIM_8ldq9GcHTC7kG14I-52" value="Edit Drafts. Using ODATA Standard notation." style="text;html=1;strokeColor=none;fillColor=none;align=left;verticalAlign=middle;whiteSpace=wrap;rounded=0;dashed=1;fontFamily=Helvetica;fontSize=12;" vertex="1" parent="28eaLeGXLbTpGrWGdDaG-1">
          <mxGeometry x="400" y="420" width="320" height="20" as="geometry" />
        </mxCell>
        <mxCell id="zIM_8ldq9GcHTC7kG14I-53" value="DELETE" style="text;html=1;strokeColor=none;fillColor=none;align=left;verticalAlign=middle;whiteSpace=wrap;rounded=0;dashed=1;fontSize=10;fontFamily=Courier New;" vertex="1" parent="28eaLeGXLbTpGrWGdDaG-1">
          <mxGeometry x="120" y="480" width="40" height="20" as="geometry" />
        </mxCell>
        <mxCell id="zIM_8ldq9GcHTC7kG14I-54" value="Notifications(&#39;{uuid}&#39;)" style="text;html=1;strokeColor=none;fillColor=none;align=left;verticalAlign=middle;whiteSpace=wrap;rounded=0;dashed=1;fontSize=12;fontFamily=Courier New;" vertex="1" parent="28eaLeGXLbTpGrWGdDaG-1">
          <mxGeometry x="160" y="480" width="200" height="20" as="geometry" />
        </mxCell>
        <mxCell id="zIM_8ldq9GcHTC7kG14I-55" value="Delete Notification {uuid}" style="text;html=1;strokeColor=none;fillColor=none;align=left;verticalAlign=middle;whiteSpace=wrap;rounded=0;dashed=1;fontFamily=Helvetica;fontSize=12;" vertex="1" parent="28eaLeGXLbTpGrWGdDaG-1">
          <mxGeometry x="400" y="480" width="320" height="20" as="geometry" />
        </mxCell>
        <mxCell id="zIM_8ldq9GcHTC7kG14I-56" value="&lt;font style=&quot;font-size: 12px&quot;&gt;List Notifications, page 3, using ODATA filter arguments.&lt;/font&gt;" style="text;html=1;strokeColor=none;fillColor=none;align=left;verticalAlign=middle;whiteSpace=wrap;rounded=0;dashed=1;fontFamily=Helvetica;fontSize=11;" vertex="1" parent="28eaLeGXLbTpGrWGdDaG-1">
          <mxGeometry x="400" y="340" width="320" height="20" as="geometry" />
        </mxCell>
        <mxCell id="zIM_8ldq9GcHTC7kG14I-57" value="&lt;font style=&quot;font-size: 11px&quot;&gt;&lt;span style=&quot;font-size: 12px&quot;&gt;Notifications&lt;/span&gt;?$top=80&amp;amp;$skip=60&lt;/font&gt;" style="text;html=1;strokeColor=none;fillColor=none;align=left;verticalAlign=middle;whiteSpace=wrap;rounded=0;dashed=1;fontSize=12;fontFamily=Courier New;" vertex="1" parent="28eaLeGXLbTpGrWGdDaG-1">
          <mxGeometry x="160" y="340" width="230" height="20" as="geometry" />
        </mxCell>
        <mxCell id="zIM_8ldq9GcHTC7kG14I-58" value="GET" style="text;html=1;strokeColor=none;fillColor=none;align=left;verticalAlign=middle;whiteSpace=wrap;rounded=0;dashed=1;fontSize=12;fontFamily=Courier New;" vertex="1" parent="28eaLeGXLbTpGrWGdDaG-1">
          <mxGeometry x="120" y="340" width="40" height="20" as="geometry" />
        </mxCell>
        <mxCell id="zIM_8ldq9GcHTC7kG14I-59" value="Count Notifications, using ODATA standard filter arguments." style="text;html=1;strokeColor=none;fillColor=none;align=left;verticalAlign=middle;whiteSpace=wrap;rounded=0;dashed=1;fontFamily=Helvetica;fontSize=11;" vertex="1" parent="28eaLeGXLbTpGrWGdDaG-1">
          <mxGeometry x="400" y="320" width="320" height="20" as="geometry" />
        </mxCell>
        <mxCell id="zIM_8ldq9GcHTC7kG14I-60" value="Notifications?$count=true" style="text;html=1;strokeColor=none;fillColor=none;align=left;verticalAlign=middle;whiteSpace=wrap;rounded=0;dashed=1;fontSize=12;fontFamily=Courier New;" vertex="1" parent="28eaLeGXLbTpGrWGdDaG-1">
          <mxGeometry x="160" y="320" width="200" height="20" as="geometry" />
        </mxCell>
        <mxCell id="zIM_8ldq9GcHTC7kG14I-61" value="GET" style="text;html=1;strokeColor=none;fillColor=none;align=left;verticalAlign=middle;whiteSpace=wrap;rounded=0;dashed=1;fontSize=12;fontFamily=Courier New;" vertex="1" parent="28eaLeGXLbTpGrWGdDaG-1">
          <mxGeometry x="120" y="320" width="40" height="20" as="geometry" />
        </mxCell>
        <mxCell id="zIM_8ldq9GcHTC7kG14I-62" value="List Notifications that meet a custom search criteria." style="text;html=1;strokeColor=none;fillColor=none;align=left;verticalAlign=middle;whiteSpace=wrap;rounded=0;dashed=1;fontFamily=Helvetica;fontSize=12;" vertex="1" parent="28eaLeGXLbTpGrWGdDaG-1">
          <mxGeometry x="400" y="360" width="320" height="20" as="geometry" />
        </mxCell>
        <mxCell id="zIM_8ldq9GcHTC7kG14I-63" value="Notifications?$search=xyz" style="text;html=1;strokeColor=none;fillColor=none;align=left;verticalAlign=middle;whiteSpace=wrap;rounded=0;dashed=1;fontSize=12;fontFamily=Courier New;" vertex="1" parent="28eaLeGXLbTpGrWGdDaG-1">
          <mxGeometry x="160" y="360" width="200" height="20" as="geometry" />
        </mxCell>
        <mxCell id="zIM_8ldq9GcHTC7kG14I-64" value="GET" style="text;html=1;strokeColor=none;fillColor=none;align=left;verticalAlign=middle;whiteSpace=wrap;rounded=0;dashed=1;fontSize=12;fontFamily=Courier New;" vertex="1" parent="28eaLeGXLbTpGrWGdDaG-1">
          <mxGeometry x="120" y="360" width="40" height="20" as="geometry" />
        </mxCell>
        <mxCell id="zIM_8ldq9GcHTC7kG14I-65" value="Description" style="text;html=1;strokeColor=none;fillColor=#f5f5f5;align=left;verticalAlign=middle;whiteSpace=wrap;rounded=0;fontSize=12;fontFamily=Helvetica;fontColor=#333333;fontStyle=0" vertex="1" parent="28eaLeGXLbTpGrWGdDaG-1">
          <mxGeometry x="400" y="200" width="320" height="20" as="geometry" />
        </mxCell>
        <mxCell id="zIM_8ldq9GcHTC7kG14I-66" value="URL" style="text;html=1;strokeColor=none;fillColor=#f5f5f5;align=left;verticalAlign=middle;whiteSpace=wrap;rounded=0;fontSize=12;fontFamily=Helvetica;fontColor=#333333;fontStyle=0" vertex="1" parent="28eaLeGXLbTpGrWGdDaG-1">
          <mxGeometry x="160" y="200" width="230" height="20" as="geometry" />
        </mxCell>
        <mxCell id="zIM_8ldq9GcHTC7kG14I-67" value="&lt;font style=&quot;font-size: 10px;&quot;&gt;VERB&lt;/font&gt;" style="text;html=1;strokeColor=none;fillColor=#f5f5f5;align=left;verticalAlign=middle;whiteSpace=wrap;rounded=0;fontSize=10;fontFamily=Helvetica;fontColor=#333333;fontStyle=0" vertex="1" parent="28eaLeGXLbTpGrWGdDaG-1">
          <mxGeometry x="120" y="200" width="30" height="20" as="geometry" />
        </mxCell>
        <mxCell id="zIM_8ldq9GcHTC7kG14I-68" value="&lt;font style=&quot;font-size: 9px&quot;&gt;&lt;span style=&quot;font-size: 10px&quot;&gt;SummaryItems&lt;/span&gt;?$search=Notification,abc:xyz&lt;/font&gt;" style="text;html=1;strokeColor=none;fillColor=none;align=left;verticalAlign=middle;whiteSpace=wrap;rounded=0;dashed=1;fontSize=9;fontFamily=Courier New;" vertex="1" parent="28eaLeGXLbTpGrWGdDaG-1">
          <mxGeometry x="160" y="260" width="250" height="20" as="geometry" />
        </mxCell>
        <mxCell id="zIM_8ldq9GcHTC7kG14I-69" value="GET" style="text;html=1;strokeColor=none;fillColor=none;align=left;verticalAlign=middle;whiteSpace=wrap;rounded=0;dashed=1;fontSize=12;fontFamily=Courier New;" vertex="1" parent="28eaLeGXLbTpGrWGdDaG-1">
          <mxGeometry x="120" y="260" width="40" height="20" as="geometry" />
        </mxCell>
        <mxCell id="zIM_8ldq9GcHTC7kG14I-70" value="&lt;font style=&quot;font-size: 10px&quot;&gt;SummaryItems?$search=Notification:xyz&lt;/font&gt;" style="text;html=1;strokeColor=none;fillColor=none;align=left;verticalAlign=middle;whiteSpace=wrap;rounded=0;dashed=1;fontSize=10;fontFamily=Courier New;" vertex="1" parent="28eaLeGXLbTpGrWGdDaG-1">
          <mxGeometry x="160" y="240" width="240" height="20" as="geometry" />
        </mxCell>
        <mxCell id="zIM_8ldq9GcHTC7kG14I-71" value="GET" style="text;html=1;strokeColor=none;fillColor=none;align=left;verticalAlign=middle;whiteSpace=wrap;rounded=0;dashed=1;fontSize=12;fontFamily=Courier New;" vertex="1" parent="28eaLeGXLbTpGrWGdDaG-1">
          <mxGeometry x="120" y="240" width="40" height="20" as="geometry" />
        </mxCell>
        <mxCell id="zIM_8ldq9GcHTC7kG14I-72" value="&lt;font style=&quot;font-size: 11px&quot;&gt;List SummaryItems of type Notification custom matching xyz&lt;/font&gt;" style="text;html=1;strokeColor=none;fillColor=none;align=left;verticalAlign=middle;whiteSpace=wrap;rounded=0;dashed=1;fontFamily=Helvetica;fontSize=12;" vertex="1" parent="28eaLeGXLbTpGrWGdDaG-1">
          <mxGeometry x="400" y="240" width="320" height="20" as="geometry" />
        </mxCell>
        <mxCell id="zIM_8ldq9GcHTC7kG14I-73" value="&lt;font style=&quot;font-size: 10px&quot;&gt;List SummaryItems of type Notification &amp;amp; abc custom matching xyz&lt;/font&gt;" style="text;html=1;strokeColor=none;fillColor=none;align=left;verticalAlign=middle;whiteSpace=wrap;rounded=0;dashed=1;fontFamily=Helvetica;fontSize=11;" vertex="1" parent="28eaLeGXLbTpGrWGdDaG-1">
          <mxGeometry x="400" y="260" width="320" height="20" as="geometry" />
        </mxCell>
        <mxCell id="oeW0ZnAdmkRzm0PjmVFn-0" value="POST" style="text;html=1;strokeColor=none;fillColor=none;align=left;verticalAlign=middle;whiteSpace=wrap;rounded=0;dashed=1;fontSize=12;fontFamily=Courier New;" vertex="1" parent="28eaLeGXLbTpGrWGdDaG-1">
          <mxGeometry x="120" y="540" width="40" height="20" as="geometry" />
        </mxCell>
        <mxCell id="oeW0ZnAdmkRzm0PjmVFn-1" value="NotificationStates()" style="text;html=1;strokeColor=none;fillColor=none;align=left;verticalAlign=middle;whiteSpace=wrap;rounded=0;dashed=1;fontSize=12;fontFamily=Courier New;" vertex="1" parent="28eaLeGXLbTpGrWGdDaG-1">
          <mxGeometry x="160" y="540" width="200" height="20" as="geometry" />
        </mxCell>
        <mxCell id="oeW0ZnAdmkRzm0PjmVFn-2" value="Change State of an Notification (Draft, Read, UnRead). No ID." style="text;html=1;strokeColor=none;fillColor=none;align=left;verticalAlign=middle;whiteSpace=wrap;rounded=0;dashed=1;fontFamily=Helvetica;fontSize=11;" vertex="1" parent="28eaLeGXLbTpGrWGdDaG-1">
          <mxGeometry x="400" y="540" width="320" height="20" as="geometry" />
        </mxCell>
        <mxCell id="zIM_8ldq9GcHTC7kG14I-1" value="Title/Diagram" parent="zIM_8ldq9GcHTC7kG14I-0" />
        <mxCell id="zIM_8ldq9GcHTC7kG14I-74" value="&lt;font style=&quot;font-size: 12px ; font-weight: normal&quot;&gt;&lt;i&gt;Diagram: Base&amp;nbsp;&lt;/i&gt;&lt;i&gt;System&amp;nbsp;&lt;/i&gt;&lt;i&gt;Logical Module -&amp;nbsp;&lt;/i&gt;&lt;i&gt;Interoperability&amp;nbsp;&lt;/i&gt;&lt;i&gt;- APIs - Notifications&lt;/i&gt;&lt;/font&gt;" style="text;strokeColor=none;fillColor=none;html=1;fontSize=12;fontStyle=1;verticalAlign=middle;align=left;shadow=0;glass=0;comic=0;opacity=30;fontColor=#808080;" vertex="1" parent="zIM_8ldq9GcHTC7kG14I-1">
          <mxGeometry x="120" y="580" width="560" height="20" as="geometry" />
        </mxCell>
        <mxCell id="28eaLeGXLbTpGrWGdDaG-0" value="Title/Page" visible="0" parent="zIM_8ldq9GcHTC7kG14I-0" />
        <mxCell id="zIM_8ldq9GcHTC7kG14I-75" value="" style="group;fontSize=12;" vertex="1" connectable="0" parent="28eaLeGXLbTpGrWGdDaG-0">
          <mxGeometry x="120" y="120" width="600" height="45" as="geometry" />
        </mxCell>
        <mxCell id="zIM_8ldq9GcHTC7kG14I-76" value="&lt;font style=&quot;font-size: 12px&quot;&gt;Base Logical Module - Interoperability&amp;nbsp;- APIs - Notifications&lt;/font&gt;" style="text;strokeColor=none;fillColor=none;html=1;fontSize=12;fontStyle=1;verticalAlign=middle;align=left;shadow=0;glass=0;comic=0;opacity=30;fontColor=#808080;" vertex="1" parent="zIM_8ldq9GcHTC7kG14I-75">
          <mxGeometry y="20" width="600" height="20" as="geometry" />
        </mxCell>
        <mxCell id="zIM_8ldq9GcHTC7kG14I-77" value="" style="line;strokeWidth=2;html=1;shadow=0;glass=0;comic=0;fillColor=none;fontSize=10;fontColor=#CCCCCC;labelBackgroundColor=none;strokeColor=#CCCCCC;" vertex="1" parent="zIM_8ldq9GcHTC7kG14I-75">
          <mxGeometry y="35" width="600" height="10" as="geometry" />
        </mxCell>
        <mxCell id="28eaLeGXLbTpGrWGdDaG-2" value="About" parent="zIM_8ldq9GcHTC7kG14I-0" />
      </root>
    </mxGraphModel>
  </diagram>
</mxfile>
